<?xml version="1.0" encoding="utf-8"?>
<!-- Generator: Adobe Illustrator 25.2.0, SVG Export Plug-In . SVG Version: 6.00 Build 0)  -->
<svg version="1.1" id="Layer_1" xmlns="http://www.w3.org/2000/svg" xmlns:xlink="http://www.w3.org/1999/xlink" x="0px" y="0px"
	 viewBox="0 0 595.28 841.89" style="enable-background:new 0 0 595.28 841.89;" xml:space="preserve">
<style type="text/css">
	.st0{fill: #fff;}
	.st1{fill: #fff;}
</style>
<g>
	<g>
		<g>
			<path class="st0" d="M357.82,505.91c0.11,0.46-0.25,0.91-0.74,0.91h-41.92c-0.36,0-0.66-0.25-0.74-0.59l-7.82-36.33l-10.37-48.12
				l-7.95-36.92l-7.7-35.78l-33.87,157.14c-0.08,0.34-0.38,0.59-0.74,0.59h-41.92c-0.49,0-0.84-0.45-0.74-0.91l37.5-174
				c3.55-16.49,16.83-28.83,33.04-31.54c2.18-0.37,4.43-0.55,6.71-0.55h0.01c19.16,0,35.71,13.37,39.75,32.09l1.04,4.83l10.37,48.12
				l7.95,36.92l10.37,48.12L357.82,505.91z"/>
			<path class="st0" d="M391.98,476v24.7c0,3.38-2.74,6.11-6.11,6.11h-22.8c0.49,0,0.84-0.45,0.74-0.91l-6.16-28.61
				c-0.82-3.81,2.08-7.4,5.97-7.4h22.25C389.24,469.89,391.98,472.63,391.98,476z"/>
			<path class="st0" d="M391.98,305.92v24.7c0,3.38-2.74,6.11-6.11,6.11h-53.58c-2.88,0-5.37-2.01-5.97-4.83l0,0
				c-2.02-10.01-14.01-32.09-27.58-32.09h87.13C389.24,299.81,391.98,302.55,391.98,305.92z"/>
			<path class="st0" d="M391.98,390.96v24.7c0,3.38-2.74,6.11-6.11,6.11h-35.26c-2.88,0-5.37-2.01-5.97-4.82l-5.32-24.7
				c-0.82-3.81,2.08-7.4,5.97-7.4h40.58C389.24,384.85,391.98,387.59,391.98,390.96z"/>
		</g>
	</g>
</g>
</svg>
